<svg width="32" height="32" viewBox="0 0 32 32" fill="none" xmlns="http://www.w3.org/2000/svg">
<g id="Folder">
<path id="Vector" d="M27.8462 8.36364H16.4456L12.7692 4.63955C12.5699 4.43619 12.3326 4.27495 12.0713 4.16516C11.8099 4.05538 11.5297 3.99924 11.2467 4.00001H4.15385C3.58261 4.00001 3.03477 4.22988 2.63085 4.63905C2.22692 5.04822 2 5.60317 2 6.18183V25.9027C2.00107 26.4589 2.21973 26.9919 2.60806 27.385C2.99639 27.7781 3.52273 27.9993 4.07173 28H27.966C28.5052 27.9993 29.0222 27.782 29.4035 27.3957C29.7848 27.0095 29.9993 26.4858 30 25.9395V10.5455C30 9.96681 29.7731 9.41185 29.3692 9.00268C28.9652 8.59351 28.4174 8.36364 27.8462 8.36364ZM4.15385 6.18183H11.2467L13.4006 8.36364H4.15385V6.18183Z" fill="black" fill-opacity="0.2"/>
</g>
</svg>
