<svg width="32" height="32" viewBox="0 0 32 32" fill="none" xmlns="http://www.w3.org/2000/svg">
<g id="library">
<path id="Vector" d="M21 13C18.7909 13 17 11.2091 17 9V8C17 5.79086 18.7909 4 21 4H24C26.2091 4 28 5.79086 28 8V9C28 11.2091 26.2091 13 24 13H21ZM8 17C5.79086 17 4 15.2091 4 13V8C4 5.79086 5.79086 4 8 4H11C13.2091 4 15 5.79086 15 8V13C15 15.2091 13.2091 17 11 17H8ZM21 28C18.7909 28 17 26.2091 17 24V19C17 16.7909 18.7909 15 21 15H24C26.2091 15 28 16.7909 28 19V24C28 26.2091 26.2091 28 24 28H21ZM8 28C5.79086 28 4 26.2091 4 24V23C4 20.7909 5.79086 19 8 19H11C13.2091 19 15 20.7909 15 23V24C15 26.2091 13.2091 28 11 28H8Z" fill="currentColor"/>
</g>
</svg>
