<svg width="32" height="32" viewBox="0 0 32 32" fill="none" xmlns="http://www.w3.org/2000/svg">
<g id="pedals">
<path id="Subtract" fill-rule="evenodd" clip-rule="evenodd" d="M8 4C5.79086 4 4 5.79086 4 8V24C4 26.2091 5.79086 28 8 28H24C26.2091 28 28 26.2091 28 24V8C28 5.79086 26.2091 4 24 4H8ZM12 8C10.8954 8 10 8.89543 10 10V14C10 15.1046 10.8954 16 12 16H20C21.1046 16 22 15.1046 22 14V10C22 8.89543 21.1046 8 20 8H12ZM9 24C10.1046 24 11 23.1046 11 22C11 20.8954 10.1046 20 9 20C7.89543 20 7 20.8954 7 22C7 23.1046 7.89543 24 9 24ZM18 22C18 23.1046 17.1046 24 16 24C14.8954 24 14 23.1046 14 22C14 20.8954 14.8954 20 16 20C17.1046 20 18 20.8954 18 22ZM23 24C24.1046 24 25 23.1046 25 22C25 20.8954 24.1046 20 23 20C21.8954 20 21 20.8954 21 22C21 23.1046 21.8954 24 23 24Z" fill="currentColor"/>
</g>
</svg>
