<svg width="1514" height="144" viewBox="0 0 1514 144" fill="none" xmlns="http://www.w3.org/2000/svg">
<g id="Logos">
<g id="Property 1=gg-horizontal-black">
<g id="Group">
<path id="Vector" d="M361.93 74.1999V69.8599C361.93 33.3499 373.84 22.1399 422.25 22.1399C470.66 22.1399 481.89 29.5799 481.61 56.2299L459.05 56.6199V56.0399C458.96 45.8999 454.4 42.4199 422.83 42.4199C391.26 42.4199 385.27 48.4999 385.27 71.4899V72.5499C385.27 96.4999 390.4 102.2 422.74 102.2C455.08 102.2 459.73 99.3999 459.63 85.5899V85.2999H410.25V67.1399H481.9C481.81 71.8699 481.81 79.0199 481.81 83.0799C481.81 114.56 471.06 121.91 422.36 121.91C373.66 121.91 361.94 110.6 361.94 74.1899L361.93 74.1999Z" fill="#0A0A0A"/>
<path id="Vector_2" d="M614.97 41.2698V51.5098C614.97 58.5598 615.06 68.1198 615.06 79.9098C615.06 111.59 604.5 122.02 556.77 122.02C509.04 122.02 498.48 111.78 498.48 79.9098C498.48 68.1298 498.57 58.3798 498.57 51.3198V41.0798C498.57 34.2198 498.57 28.6198 498.48 24.0798H521.53C521.44 28.8098 521.44 34.6098 521.44 41.0798V78.2598C521.44 97.1898 526.76 101.63 556.87 101.63C586.98 101.63 592.31 97.1898 592.31 78.2598V41.0798C592.31 34.4098 592.31 28.6198 592.22 24.0798H615.27C615.18 28.7198 615.18 34.2198 615.18 41.2698H614.98H614.97Z" fill="#0A0A0A"/>
<path id="Vector_3" d="M633.51 40.9798C633.51 34.2198 633.51 29.7798 633.42 24.0798H656.47C656.38 29.8698 656.38 34.1198 656.38 40.9798V98.3498C656.38 108.88 656.38 113.32 656.47 120.08H633.42C633.51 113.7 633.51 108.2 633.51 98.3498V40.9798Z" fill="#0A0A0A"/>
<path id="Vector_4" d="M721.53 44.4598H708.75C698.3 44.4598 683.09 44.4598 673.6 44.5498V24.0798H792.3V44.6598C782.72 44.5698 773.32 44.5698 767.9 44.5698H744.28V98.4598C744.28 108.99 744.28 113.43 744.37 120.19H721.32C721.41 113.81 721.41 108.31 721.41 98.4598V44.4698H721.51L721.53 44.4598Z" fill="#0A0A0A"/>
<path id="Vector_5" d="M857.75 24.0798H819.13C809.74 44.6598 783.2 101.73 774.1 120.18H798.21L805.77 103.18H869.28L876.73 120.18H902C893.29 101.73 866.95 44.5498 857.75 24.0798ZM814.08 84.5398V84.4398L817.47 76.6198C822.22 65.6998 826.96 54.4098 831.03 44.5498H844.2C848.36 54.8898 853.4 66.6698 858.14 77.8698L861.14 84.5398H814.09H814.08Z" fill="#0A0A0A"/>
<path id="Vector_6" d="M1015.88 98.1599C1012.88 93.7198 1009.78 89.5698 1006.78 85.6098C1023.92 81.5598 1029.73 72.2798 1029.73 55.4798V55.0898C1029.73 31.8198 1018.7 24.0898 985.48 24.0898H914.8C914.89 29.5898 914.89 34.2298 914.89 40.9898V98.3498C914.89 108.2 914.89 113.9 914.8 120.08H937.85C937.76 113.52 937.76 108.88 937.76 98.3498V89.6599H983.75L992.95 102.51C997.31 108.6 1001.37 114.59 1004.76 120.09H1030.9C1025.67 112.56 1020.54 105.21 1015.89 98.1698L1015.88 98.1599ZM1006.29 56.5298C1006.29 66.2798 1001.74 70.7298 984.7 70.7298H937.74V43.2998H984.7C1001.84 43.2998 1006.29 46.7798 1006.29 56.2398V56.5298Z" fill="#0A0A0A"/>
<path id="Vector_7" d="M1044.01 74.1999V69.8599C1044.01 33.3599 1055.92 22.1499 1104.33 22.1499C1152.74 22.1499 1163.97 29.5899 1163.69 56.2399L1141.13 56.6299V56.0499C1141.04 45.9099 1136.48 42.4299 1104.91 42.4299C1073.34 42.4299 1067.35 48.5099 1067.35 71.4999V72.5599C1067.35 96.5099 1072.48 102.21 1104.82 102.21C1137.16 102.21 1141.81 99.4099 1141.71 85.5999V85.3099H1092.33V67.1499H1163.98C1163.88 71.8799 1163.88 79.0299 1163.88 83.0899C1163.88 114.57 1153.14 121.92 1104.43 121.92C1055.72 121.92 1043.91 110.52 1043.91 74.1099L1044 74.1999H1044.01Z" fill="#0A0A0A"/>
<path id="Vector_8" d="M1410.82 40.9798C1410.82 34.2198 1410.82 29.5798 1410.73 24.0798H1511.62V43.0098C1491.09 42.9198 1465.34 42.9198 1447.72 42.9198H1433.58V62.2398H1505.9V80.3998C1479.08 80.3098 1470.37 80.3098 1455.46 80.3098H1433.68V101.36H1451.3C1469.6 101.36 1498.74 101.36 1513.95 101.27V120.2H1410.74C1410.83 114.02 1410.83 108.32 1410.83 98.4698V40.9898L1410.82 40.9798Z" fill="#0A0A0A"/>
<path id="Vector_9" d="M1324.62 44.4598H1311.84C1301.38 44.4598 1286.18 44.4598 1276.69 44.5498V24.0798H1395.39V44.6598C1385.81 44.5698 1376.41 44.5698 1370.99 44.5698H1347.37V98.4598C1347.37 108.99 1347.37 113.43 1347.46 120.19H1324.42C1324.51 113.81 1324.51 108.31 1324.51 98.4598V44.4698H1324.6L1324.62 44.4598Z" fill="#0A0A0A"/>
<path id="Vector_10" d="M1253.12 24.0798C1262.32 44.5498 1288.66 101.73 1297.37 120.18H1272.1L1264.65 103.18H1201.13L1193.58 120.18H1169.47C1178.58 101.73 1205.1 44.6498 1214.5 24.0798H1253.13H1253.12ZM1209.45 84.5398H1256.51L1253.51 77.8698C1248.76 66.6698 1243.72 54.8898 1239.56 44.5498H1226.39C1222.33 54.3998 1217.58 65.6998 1212.84 76.6198L1209.45 84.4398V84.5298V84.5398Z" fill="#0A0A0A"/>
</g>
<g id="Icons">
<g id="Vector_11">
<path d="M330.46 14.02C330.39 13.89 330.31 13.76 330.24 13.63C330.44 13.56 330.63 13.47 330.8 13.38C331.46 13.03 331.92 12.52 332.19 11.86C332.46 11.2 332.6 10.4 332.6 9.46V9.4C332.6 8.29 332.44 7.41 332.11 6.74C331.79 6.07 331.24 5.59 330.47 5.3C329.7 5.01 328.67 4.86 327.4 4.86H319.66C319.68 5.34 319.69 5.87 319.69 6.46V16.63C319.69 17.2 319.68 17.74 319.66 18.24H323.48C323.48 17.74 323.48 17.2 323.46 16.61C323.45 16.03 323.44 15.32 323.44 14.5V14.27C323.52 14.27 323.59 14.27 323.67 14.27H326.58C326.67 14.43 326.77 14.6 326.87 14.77C327.19 15.33 327.53 15.91 327.87 16.51C328.21 17.11 328.54 17.69 328.86 18.25H332.9C332.48 17.54 332.06 16.82 331.63 16.1C331.2 15.38 330.8 14.69 330.44 14.03L330.46 14.02ZM325.94 11.15H323.46V7.99H326.19C327.13 7.99 327.79 8.08 328.16 8.27C328.54 8.46 328.72 8.89 328.72 9.55V9.58C328.72 10.25 328.53 10.68 328.14 10.86C327.75 11.05 327.02 11.14 325.93 11.14L325.94 11.15Z" fill="#0A0A0A"/>
<path d="M337.43 5.73C337.07 4.31 336.46 3.18 335.58 2.33C334.7 1.48 333.48 0.88 331.91 0.53C330.34 0.17 328.36 0 325.96 0C323.56 0 321.57 0.18 320.01 0.53C318.44 0.89 317.22 1.49 316.34 2.33C315.46 3.18 314.85 4.31 314.49 5.73C314.13 7.15 313.96 8.93 313.96 11.06V12.06C313.96 14.19 314.14 15.97 314.49 17.39C314.85 18.81 315.46 19.94 316.34 20.79C317.22 21.64 318.44 22.24 320.01 22.59C321.58 22.94 323.56 23.12 325.96 23.12C328.36 23.12 330.35 22.94 331.91 22.59C333.48 22.24 334.7 21.63 335.58 20.79C336.46 19.94 337.07 18.81 337.43 17.39C337.78 15.97 337.96 14.19 337.96 12.06V11.06C337.96 8.93 337.78 7.15 337.43 5.73ZM335.15 11.75C335.15 13.55 335.02 15.02 334.77 16.17C334.52 17.32 334.06 18.21 333.41 18.85C332.75 19.49 331.82 19.93 330.62 20.18C329.42 20.43 327.87 20.56 325.97 20.56C324.07 20.56 322.52 20.43 321.32 20.18C320.12 19.93 319.19 19.49 318.53 18.85C317.87 18.21 317.42 17.32 317.17 16.17C316.92 15.02 316.79 13.55 316.79 11.75V11.34C316.79 9.54 316.92 8.07 317.17 6.92C317.42 5.77 317.87 4.88 318.53 4.26C319.19 3.63 320.12 3.19 321.32 2.94C322.52 2.69 324.07 2.56 325.97 2.56C327.87 2.56 329.42 2.69 330.62 2.94C331.82 3.19 332.75 3.63 333.41 4.27C334.07 4.91 334.52 5.8 334.77 6.95C335.02 8.1 335.15 9.57 335.15 11.37V11.75Z" fill="#0A0A0A"/>
<path d="M59.48 0C42.64 19.28 32.4 44.46 32.4 72C32.4 99.54 42.64 124.73 59.48 144H19.68C7.2 122.87 0 98.27 0 72C0 45.73 7.2 21.13 19.68 0H59.48ZM294.32 0H254.53C271.37 19.28 281.61 44.46 281.61 72C281.61 99.54 271.37 124.73 254.53 144H294.32C306.81 122.87 314 98.27 314 72C314 45.73 306.8 21.13 294.32 0ZM142.59 57.6V84.78H214.93C209.41 103.28 192.25 116.81 171.97 116.81H142.02C117.3 116.81 97.2 96.71 97.2 71.99C97.2 47.27 117.31 27.17 142.02 27.17H229.01V0H114.19C85.32 11.19 64.8 39.24 64.8 72C64.8 104.76 85.33 132.81 114.19 144H199.81C228.67 132.81 249.2 104.76 249.2 72C249.2 67.08 248.72 62.27 247.84 57.6H142.59Z" fill="#0A0A0A"/>
</g>
</g>
</g>
</g>
</svg>
