<svg width="1154" height="310" viewBox="0 0 1154 310" fill="none" xmlns="http://www.w3.org/2000/svg" role="img" aria-label="Guitargate">
<g id="Wordmark">
<path d="M0 262.13V257.78C0 221.22 11.92 210 60.4 210C108.88 210 120.12 217.45 119.84 244.14L97.25 244.53V243.95C97.16 233.79 92.6 230.31 60.99 230.31C29.38 230.31 23.38 236.4 23.38 259.42V260.48C23.38 284.46 28.52 290.17 60.9 290.17C93.28 290.17 97.94 287.37 97.83 273.53V273.24H48.39V255.06H120.14C120.05 259.8 120.05 266.96 120.05 271.02C120.05 302.54 109.28 309.9 60.52 309.9C11.76 309.9 0 298.58 0 262.13Z" fill="#242321"/>
<path d="M253.37 239.4C253.37 246.46 253.46 256.04 253.46 267.83C253.46 299.55 242.89 310 195.09 310C147.29 310 136.72 299.75 136.72 267.83C136.72 256.03 136.81 246.27 136.81 239.2V228.95C136.81 222.08 136.81 216.47 136.72 211.93H159.8C159.71 216.67 159.71 222.47 159.71 228.95V266.18C159.71 285.14 165.04 289.59 195.19 289.59C225.34 289.59 230.67 285.14 230.67 266.18V228.95C230.67 222.28 230.67 216.47 230.58 211.93H253.66C253.57 216.58 253.57 222.09 253.57 229.14H253.37V239.4Z" fill="#242321"/>
<path d="M271.94 228.86C271.94 222.09 271.94 217.64 271.85 211.93H294.93C294.84 217.73 294.84 221.99 294.84 228.86V286.3C294.84 296.84 294.84 301.29 294.93 308.06H271.85C271.94 301.67 271.94 296.16 271.94 286.3V228.86Z" fill="#242321"/>
<path d="M360.08 232.34H347.28C336.81 232.34 321.59 232.34 312.09 232.43V211.93H430.95V232.53C421.35 232.44 411.95 232.44 406.52 232.44H382.87V286.4C382.87 296.94 382.87 301.39 382.96 308.16H359.88C359.97 301.77 359.97 296.26 359.97 286.4V232.34H360.08Z" fill="#242321"/>
<path d="M496.47 211.93H457.79C448.38 232.53 421.81 289.69 412.7 308.16H436.84L444.41 291.14H508.01L515.47 308.16H540.77C532.05 289.69 505.68 232.43 496.47 211.93ZM452.75 272.47V272.37L456.15 264.54C460.9 253.61 465.65 242.3 469.73 232.43H482.92C487.09 242.78 492.13 254.58 496.88 265.8L499.88 272.47H452.75Z" fill="#242321"/>
<path d="M654.81 286.11C651.81 281.67 648.71 277.51 645.7 273.54C662.86 269.48 668.68 260.19 668.68 243.37V242.98C668.68 219.68 657.63 211.94 624.38 211.94H553.6C553.69 217.45 553.69 222.1 553.69 228.87V286.31C553.69 296.17 553.69 301.88 553.6 308.07H576.68C576.59 301.5 576.59 296.85 576.59 286.31V277.61H622.64L631.85 290.48C636.21 296.58 640.28 302.57 643.68 308.08H669.86C664.62 300.54 659.48 293.18 654.83 286.13L654.81 286.11ZM645.21 244.43C645.21 254.2 640.66 258.65 623.59 258.65H576.57V231.18H623.59C640.75 231.18 645.21 234.66 645.21 244.14V244.43Z" fill="#242321"/>
<path d="M682.99 262.13V257.78C682.99 221.23 694.91 210.01 743.39 210.01C791.87 210.01 803.11 217.46 802.83 244.15L780.24 244.54V243.96C780.15 233.8 775.59 230.32 743.98 230.32C712.37 230.32 706.37 236.41 706.37 259.43V260.49C706.37 284.47 711.51 290.18 743.89 290.18C776.27 290.18 780.93 287.38 780.83 273.54V273.25H731.39V255.07H803.14C803.04 259.81 803.04 266.97 803.04 271.03C803.04 302.55 792.28 309.91 743.51 309.91C694.74 309.91 682.91 298.5 682.91 262.04L683 262.13H682.99Z" fill="#242321"/>
<path d="M1050.29 228.86C1050.29 222.09 1050.29 217.45 1050.2 211.93H1151.22V230.89C1130.66 230.8 1104.88 230.8 1087.23 230.8H1073.08V250.15H1145.5V268.33C1118.64 268.24 1109.92 268.24 1094.99 268.24H1073.18V289.32H1090.82C1109.14 289.32 1138.33 289.32 1153.55 289.23V308.19H1050.2C1050.29 302 1050.29 296.29 1050.29 286.43V228.86Z" fill="#242321"/>
<path d="M963.96 232.34H951.16C940.69 232.34 925.47 232.34 915.97 232.43V211.93H1034.83V232.53C1025.23 232.44 1015.83 232.44 1010.4 232.44H986.75V286.4C986.75 296.94 986.75 301.39 986.84 308.16H963.77C963.86 301.77 963.86 296.26 963.86 286.4V232.34H963.96Z" fill="#242321"/>
<path d="M892.37 211.93C901.58 232.43 927.95 289.69 936.67 308.16H911.37L903.91 291.14H840.31L832.75 308.16H808.6C817.72 289.69 844.28 232.53 853.69 211.93H892.37ZM848.64 272.47H895.76L892.76 265.8C888.01 254.58 882.96 242.78 878.79 232.43H865.6C861.53 242.3 856.78 253.61 852.03 264.54L848.63 272.37V272.46L848.64 272.47Z" fill="#242321"/>
</g>
<g id="Icon">
<path d="M776.587 17.3303C776.501 17.1696 776.402 17.0089 776.315 16.8482C776.563 16.7617 776.797 16.6504 777.008 16.5392C777.823 16.1065 778.392 15.4761 778.726 14.6603C779.06 13.8444 779.233 12.8556 779.233 11.6936V11.6194C779.233 10.2474 779.035 9.15958 778.627 8.33139C778.231 7.50319 777.552 6.90986 776.6 6.55139C775.648 6.19292 774.375 6.0075 772.805 6.0075H763.237C763.262 6.60083 763.274 7.25597 763.274 7.98528V20.5565C763.274 21.2611 763.262 21.9286 763.237 22.5467H767.959C767.959 21.9286 767.959 21.2611 767.935 20.5318C767.922 19.8149 767.91 18.9372 767.91 17.9236V17.6393C768.009 17.6393 768.095 17.6393 768.194 17.6393H771.791C771.902 17.8371 772.026 18.0472 772.15 18.2574C772.545 18.9496 772.966 19.6665 773.386 20.4082C773.806 21.1499 774.214 21.8668 774.61 22.559H779.603C779.084 21.6814 778.565 20.7914 778.034 19.9014C777.502 19.0114 777.008 18.1585 776.563 17.3426L776.587 17.3303ZM771 13.7826H767.935V9.87653H771.309C772.471 9.87653 773.287 9.98778 773.744 10.2226C774.214 10.4575 774.437 10.989 774.437 11.8049V11.8419C774.437 12.6701 774.202 13.2017 773.72 13.4242C773.237 13.659 772.335 13.7703 770.988 13.7703L771 13.7826Z" fill="#242321"/>
<path d="M785.203 7.08292C784.758 5.32764 784.004 3.93083 782.916 2.88014C781.828 1.82944 780.32 1.08778 778.38 0.655139C776.439 0.210139 773.992 0 771.025 0C768.058 0 765.598 0.2225 763.67 0.655139C761.729 1.10014 760.221 1.84181 759.133 2.88014C758.046 3.93083 757.292 5.32764 756.847 7.08292C756.402 8.83819 756.191 11.0385 756.191 13.6714V14.9075C756.191 17.5404 756.414 19.7407 756.847 21.496C757.292 23.2512 758.046 24.6481 759.133 25.6988C760.221 26.7494 761.729 27.4911 763.67 27.9238C765.611 28.3564 768.058 28.5789 771.025 28.5789C773.992 28.5789 776.451 28.3564 778.38 27.9238C780.32 27.4911 781.828 26.7371 782.916 25.6988C784.004 24.6481 784.758 23.2512 785.203 21.496C785.636 19.7407 785.858 17.5404 785.858 14.9075V13.6714C785.858 11.0385 785.636 8.83819 785.203 7.08292ZM782.385 14.5243C782.385 16.7493 782.224 18.5664 781.915 19.9879C781.606 21.4094 781.037 22.5096 780.234 23.3007C779.418 24.0918 778.268 24.6357 776.785 24.9447C775.302 25.2538 773.386 25.4144 771.037 25.4144C768.689 25.4144 766.773 25.2538 765.289 24.9447C763.806 24.6357 762.656 24.0918 761.841 23.3007C761.025 22.5096 760.468 21.4094 760.159 19.9879C759.85 18.5664 759.69 16.7493 759.69 14.5243V14.0175C759.69 11.7925 759.85 9.97542 760.159 8.55389C760.468 7.13236 761.025 6.03222 761.841 5.26583C762.656 4.48708 763.806 3.94319 765.289 3.63417C766.773 3.32514 768.689 3.16444 771.037 3.16444C773.386 3.16444 775.302 3.32514 776.785 3.63417C778.268 3.94319 779.418 4.48708 780.234 5.27819C781.05 6.06931 781.606 7.16944 781.915 8.59097C782.224 10.0125 782.385 11.8296 782.385 14.0546V14.5243Z" fill="#242321"/>
<path d="M441.626 0C420.81 23.8322 408.152 54.9575 408.152 89C408.152 123.043 420.81 154.18 441.626 178H392.429C377.002 151.881 368.102 121.473 368.102 89C368.102 56.5274 377.002 26.119 392.429 0H441.626ZM731.914 0H682.729C703.546 23.8322 716.203 54.9575 716.203 89C716.203 123.043 703.546 154.18 682.729 178H731.914C747.353 151.881 756.241 121.473 756.241 89C756.241 56.5274 747.341 26.119 731.914 0ZM544.359 71.2V104.798H633.779C626.956 127.666 605.744 144.39 580.676 144.39H543.655C513.098 144.39 488.252 119.544 488.252 88.9876C488.252 58.431 513.11 33.5851 543.655 33.5851H651.184V0H509.254C473.567 13.8321 448.202 48.505 448.202 89C448.202 129.495 473.579 164.168 509.254 178H615.089C650.764 164.168 676.141 129.495 676.141 89C676.141 82.9183 675.548 76.9726 674.46 71.2H544.359Z" fill="#242321"/>
</g>
</svg>
