<?xml version="1.0" encoding="UTF-8"?>
<svg id="Layer_2" data-name="Layer 2" xmlns="http://www.w3.org/2000/svg" viewBox="0 0 256 256">
  <g id="Layer_1-2" data-name="Layer 1">
    <g>
      <path d="M45.57,18.43C36.44,9.3,25.45,3.16,13.84,0L0,13.84c12.43,1.1,24.61,6.43,34.17,15.99,9.56,9.56,14.89,21.74,15.99,34.17l13.84-13.84c-3.16-11.61-9.3-22.6-18.43-31.73Z"/>
      <path d="M82.43,18.43c-9.13,9.13-15.28,20.12-18.43,31.73l13.84,13.84c1.1-12.43,6.43-24.61,15.99-34.17,9.56-9.56,21.74-14.89,34.17-15.99L114.16,0c-11.61,3.16-22.6,9.3-31.73,18.43Z"/>
      <path d="M45.57,109.57c9.13-9.13,15.28-20.12,18.43-31.73l-13.84-13.84c-1.1,12.43-6.43,24.61-15.99,34.17-9.56,9.56-21.74,14.89-34.17,15.99l13.84,13.84c11.61-3.16,22.6-9.3,31.73-18.43Z"/>
      <path d="M82.43,109.57c9.13,9.13,20.12,15.28,31.73,18.43l13.84-13.84c-12.43-1.1-24.61-6.43-34.17-15.99-9.56-9.56-14.89-21.74-15.99-34.17l-13.84,13.84c3.16,11.61,9.3,22.6,18.43,31.73Z"/>
      <path d="M173.57,18.43c-9.13-9.13-20.12-15.28-31.73-18.43l-13.84,13.84c12.43,1.1,24.61,6.43,34.17,15.99,9.56,9.56,14.89,21.74,15.99,34.17l13.84-13.84c-3.16-11.61-9.3-22.6-18.43-31.73Z"/>
      <path d="M210.43,18.43c-9.13,9.13-15.28,20.12-18.43,31.73l13.84,13.84c1.1-12.43,6.43-24.61,15.99-34.17,9.56-9.56,21.74-14.89,34.17-15.99l-13.84-13.84c-11.61,3.16-22.6,9.3-31.73,18.43Z"/>
      <path d="M173.57,109.57c9.13-9.13,15.28-20.12,18.43-31.73l-13.84-13.84c-1.1,12.43-6.43,24.61-15.99,34.17-9.56,9.56-21.74,14.89-34.17,15.99l13.84,13.84c11.61-3.16,22.6-9.3,31.73-18.43Z"/>
      <path d="M210.43,109.57c9.13,9.13,20.12,15.28,31.73,18.43l13.84-13.84c-12.43-1.1-24.61-6.43-34.17-15.99-9.56-9.56-14.89-21.74-15.99-34.17l-13.84,13.84c3.16,11.61,9.3,22.6,18.43,31.73Z"/>
      <path d="M45.57,146.43c-9.13-9.13-20.12-15.28-31.73-18.43l-13.84,13.84c12.43,1.1,24.61,6.43,34.17,15.99,9.56,9.56,14.89,21.74,15.99,34.17l13.84-13.84c-3.16-11.61-9.3-22.6-18.43-31.73Z"/>
      <path d="M82.43,146.43c-9.13,9.13-15.28,20.12-18.43,31.73l13.84,13.84c1.1-12.43,6.43-24.61,15.99-34.17,9.56-9.56,21.74-14.89,34.17-15.99l-13.84-13.84c-11.61,3.16-22.6,9.3-31.73,18.43Z"/>
      <path d="M45.57,237.57c9.13-9.13,15.28-20.12,18.43-31.73l-13.84-13.84c-1.1,12.43-6.43,24.61-15.99,34.17-9.56,9.56-21.74,14.89-34.17,15.99l13.84,13.84c11.61-3.16,22.6-9.3,31.73-18.43Z"/>
      <path d="M82.43,237.57c9.13,9.13,20.12,15.28,31.73,18.43l13.84-13.84c-12.43-1.1-24.61-6.43-34.17-15.99-9.56-9.56-14.89-21.74-15.99-34.17l-13.84,13.84c3.16,11.61,9.3,22.6,18.43,31.73Z"/>
      <path d="M173.57,146.43c-9.13-9.13-20.12-15.28-31.73-18.43l-13.84,13.84c12.43,1.1,24.61,6.43,34.17,15.99,9.56,9.56,14.89,21.74,15.99,34.17l13.84-13.84c-3.16-11.61-9.3-22.6-18.43-31.73Z"/>
      <path d="M210.43,146.43c-9.13,9.13-15.28,20.12-18.43,31.73l13.84,13.84c1.1-12.43,6.43-24.61,15.99-34.17,9.56-9.56,21.74-14.89,34.17-15.99l-13.84-13.84c-11.61,3.16-22.6,9.3-31.73,18.43Z"/>
      <path d="M173.57,237.57c9.13-9.13,15.28-20.12,18.43-31.73l-13.84-13.84c-1.1,12.43-6.43,24.61-15.99,34.17-9.56,9.56-21.74,14.89-34.17,15.99l13.84,13.84c11.61-3.16,22.6-9.3,31.73-18.43Z"/>
      <path d="M210.43,237.57c9.13,9.13,20.12,15.28,31.73,18.43l13.84-13.84c-12.43-1.1-24.61-6.43-34.17-15.99-9.56-9.56-14.89-21.74-15.99-34.17l-13.84,13.84c3.16,11.61,9.3,22.6,18.43,31.73Z"/>
    </g>
  </g>
</svg>