<svg width="186" height="144" viewBox="0 0 186 144" fill="none" xmlns="http://www.w3.org/2000/svg">
<rect width="186" height="144" fill="#1E1E1E"/>
<g id="Icons">
<rect x="-19.5" y="-787.5" width="376.93" height="951" rx="4.5" stroke="#8A38F5" stroke-dasharray="10 5"/>
<g id="Property 1=icon-guitargate-favicon">
<path id="Vector" d="M165.021 57.6H78.6018V84.78H150.938C145.417 103.28 128.253 116.81 107.978 116.81H78.0216C53.3061 116.81 33.1917 96.71 33.1917 71.99C33.1917 47.27 53.2961 27.17 78.0216 27.17H165.011V0H50.1854C21.319 11.19 0.794434 39.24 0.794434 72C0.794434 104.76 21.319 132.81 50.1854 144H135.805C164.671 132.81 185.196 104.76 185.196 72C185.196 67.08 184.715 62.27 183.835 57.6H165.011H165.021Z" fill="#2253E7"/>
</g>
</g>
</svg>
