<svg width="338" height="144" viewBox="0 0 338 144" fill="none" xmlns="http://www.w3.org/2000/svg" role="img" aria-label="Guitargate icon">
<path d="M330.46 14.02C330.39 13.89 330.31 13.76 330.24 13.63C330.44 13.56 330.63 13.47 330.8 13.38C331.46 13.03 331.92 12.52 332.19 11.86C332.46 11.2 332.6 10.4 332.6 9.46V9.4C332.6 8.29 332.44 7.41 332.11 6.74C331.79 6.07 331.24 5.59 330.47 5.3C329.7 5.01 328.67 4.86 327.4 4.86H319.66C319.68 5.34 319.69 5.87 319.69 6.46V16.63C319.69 17.2 319.68 17.74 319.66 18.24H323.48C323.48 17.74 323.48 17.2 323.46 16.61C323.45 16.03 323.44 15.32 323.44 14.5V14.27C323.52 14.27 323.59 14.27 323.67 14.27H326.58C326.67 14.43 326.77 14.6 326.87 14.77C327.19 15.33 327.53 15.91 327.87 16.51C328.21 17.11 328.54 17.69 328.86 18.25H332.9C332.48 17.54 332.06 16.82 331.63 16.1C331.2 15.38 330.8 14.69 330.44 14.03L330.46 14.02ZM325.94 11.15H323.46V7.99H326.19C327.13 7.99 327.79 8.08 328.16 8.27C328.54 8.46 328.72 8.89 328.72 9.55V9.58C328.72 10.25 328.53 10.68 328.14 10.86C327.75 11.05 327.02 11.14 325.93 11.14L325.94 11.15Z" fill="#242321"/>
<path d="M337.43 5.73C337.07 4.31 336.46 3.18 335.58 2.33C334.7 1.48 333.48 0.88 331.91 0.53C330.34 0.17 328.36 0 325.96 0C323.56 0 321.57 0.18 320.01 0.53C318.44 0.89 317.22 1.49 316.34 2.33C315.46 3.18 314.85 4.31 314.49 5.73C314.13 7.15 313.96 8.93 313.96 11.06V12.06C313.96 14.19 314.14 15.97 314.49 17.39C314.85 18.81 315.46 19.94 316.34 20.79C317.22 21.64 318.44 22.24 320.01 22.59C321.58 22.94 323.56 23.12 325.96 23.12C328.36 23.12 330.35 22.94 331.91 22.59C333.48 22.24 334.7 21.63 335.58 20.79C336.46 19.94 337.07 18.81 337.43 17.39C337.78 15.97 337.96 14.19 337.96 12.06V11.06C337.96 8.93 337.78 7.15 337.43 5.73ZM335.15 11.75C335.15 13.55 335.02 15.02 334.77 16.17C334.52 17.32 334.06 18.21 333.41 18.85C332.75 19.49 331.82 19.93 330.62 20.18C329.42 20.43 327.87 20.56 325.97 20.56C324.07 20.56 322.52 20.43 321.32 20.18C320.12 19.93 319.19 19.49 318.53 18.85C317.87 18.21 317.42 17.32 317.17 16.17C316.92 15.02 316.79 13.55 316.79 11.75V11.34C316.79 9.54 316.92 8.07 317.17 6.92C317.42 5.77 317.87 4.88 318.53 4.26C319.19 3.63 320.12 3.19 321.32 2.94C322.52 2.69 324.07 2.56 325.97 2.56C327.87 2.56 329.42 2.69 330.62 2.94C331.82 3.19 332.75 3.63 333.41 4.27C334.07 4.91 334.52 5.8 334.77 6.95C335.02 8.1 335.15 9.57 335.15 11.37V11.75Z" fill="#242321"/>
<path d="M59.48 0C42.64 19.28 32.4 44.46 32.4 72C32.4 99.54 42.64 124.73 59.48 144H19.68C7.2 122.87 0 98.27 0 72C0 45.73 7.2 21.13 19.68 0H59.48ZM294.32 0H254.53C271.37 19.28 281.61 44.46 281.61 72C281.61 99.54 271.37 124.73 254.53 144H294.32C306.81 122.87 314 98.27 314 72C314 45.73 306.8 21.13 294.32 0ZM142.59 57.6V84.78H214.93C209.41 103.28 192.25 116.81 171.97 116.81H142.02C117.3 116.81 97.2 96.71 97.2 71.99C97.2 47.27 117.31 27.17 142.02 27.17H229.01V0H114.19C85.32 11.19 64.8 39.24 64.8 72C64.8 104.76 85.33 132.81 114.19 144H199.81C228.67 132.81 249.2 104.76 249.2 72C249.2 67.08 248.72 62.27 247.84 57.6H142.59Z" fill="#242321"/>
</svg>
