<svg width="314" height="144" viewBox="0 0 314 144" fill="none" xmlns="http://www.w3.org/2000/svg" role="img" aria-label="Teleport icon">
<path d="M19.0736 0C6.95133 21.1977 0 45.7882 0 72C0 98.2118 6.95133 122.812 19.0736 144H58.7912C42.5481 124.574 32.7163 99.4429 32.7163 72C32.7163 44.5571 42.5381 19.4262 58.7812 0H19.0736Z" fill="#242321"/>
<path d="M294.926 0H255.209C271.452 19.4262 281.284 44.5571 281.284 72C281.284 99.4429 271.452 124.584 255.209 144H294.926C307.049 122.802 314 98.2118 314 72C314 45.7882 307.049 21.1877 294.926 0Z" fill="#242321"/>
<path d="M202.409 0H111.591C84.4461 12.1301 65.4225 39.8332 65.4225 72C65.4225 104.167 84.4461 131.87 111.591 144H202.409C229.554 131.87 248.577 104.167 248.577 72C248.577 39.8332 229.554 12.1301 202.409 0ZM171.743 117.828H142.257C117.923 117.828 98.1287 97.271 98.1287 72.01C98.1287 46.749 117.923 26.1918 142.257 26.1918H171.743C196.077 26.1918 215.871 46.749 215.871 72.01C215.871 97.271 196.077 117.828 171.743 117.828Z" fill="#242321"/>
<path d="M171.303 58.9091H142.697C136.146 58.9091 130.835 64.774 130.835 72C130.835 79.226 136.146 85.0909 142.697 85.0909H171.303C177.854 85.0909 183.165 79.226 183.165 72C183.165 64.774 177.854 58.9091 171.303 58.9091Z" fill="#242321"/>
</svg>
