<svg width="314" height="144" viewBox="0 0 314 144" fill="none" xmlns="http://www.w3.org/2000/svg" role="img" aria-label="Voxbox icon">
<path d="M58.76 0.00999931C42.52 19.4287 32.71 44.5669 32.71 72.005C32.71 99.4431 42.52 124.581 58.76 144H19.06C7.06 123.011 0.13 98.6832 0 72.755V71.2551C0.13 45.3269 7.06 20.9985 19.06 0.00999931H58.76ZM294.94 0.00999931H255.25C271.49 19.4287 281.3 44.5669 281.3 72.005C281.3 99.4431 271.49 124.581 255.25 144H294.94C306.95 123.011 313.87 98.6832 314 72.755V71.2451C313.87 45.3169 306.94 20.9885 294.94 0V0.00999931ZM199.57 0.00999931L158.44 53.1063L117.31 0.00999931H77.55L133.32 72.005L77.55 144H117.31L158.44 90.9037L199.57 144H239.33L183.56 72.005L239.33 0.00999931H199.57Z" fill="#242321"/>
</svg>
